<svg width="37" height="16" viewBox="0 0 37 16" fill="none" xmlns="http://www.w3.org/2000/svg">
<path d="M1.90447 16H0.611861L4.3505 5.81818H5.62322L9.36186 16H8.06925L5.02663 7.42898H4.94709L1.90447 16ZM2.38175 12.0227H7.59197V13.1165H2.38175V12.0227ZM11.837 16H10.1751L14.9819 2.90909H16.6183L21.4251 16H19.7631L15.8512 4.98011H15.7489L11.837 16ZM12.4506 10.8864H19.1495V12.2926H12.4506V10.8864ZM24.4727 16H22.4414L28.3164 -4.76837e-07H30.3164L36.1914 16H34.1602L29.3789 2.53125H29.2539L24.4727 16ZM25.2227 9.75H33.4102V11.4687H25.2227V9.75Z" fill="white"/>
</svg>
